<svg xmlns="http://www.w3.org/2000/svg" version="1.1" xmlns:xlink="http://www.w3.org/1999/xlink" xmlns:svgjs="http://svgjs.com/svgjs" width="525" height="237" preserveAspectRatio="none" viewBox="0 0 525 237"><g mask="url(&quot;#SvgjsMask1032&quot;)" fill="none"><rect width="525" height="237" x="0" y="0" fill="#0e2a47"></rect><path d="M0 90.64L10 119.95L20 140.4L30 114.26L40 139.84L50 158.38L60 173.73L70 162.46L80 180.69L90 156.65L100 174.38L110 184.63L120 183.13L130 159.19L140 175.22L150 173L160 175.76L170 165.56L180 162.31L190 141.4L200 122.98L210 119.31L220 112.55L230 87.5L240 95.66L250 77.38L260 95.22L270 80.66L280 97.82L290 76.43L300 86.53L310 58.69L320 32.96L330 54.51L340 69.13L350 96.23L360 90.34L370 74.73L380 52.61L390 81.78L400 103.56L410 115.62L420 127.8L430 133.64L440 139.13L450 112.11L460 134.69L470 130L480 136.97L490 110.14L500 95.5L510 97.77L520 125.69L530 120.55" stroke="rgba(15, 142, 157, 1)" stroke-width="2"></path><path d="M0 90.64L10 119.95L20 140.4L30 114.26L40 139.84L50 158.38L60 173.73L70 162.46L80 180.69L90 156.65L100 174.38L110 184.63L120 183.13L130 159.19L140 175.22L150 173L160 175.76L170 165.56L180 162.31L190 141.4L200 122.98L210 119.31L220 112.55L230 87.5L240 95.66L250 77.38L260 95.22L270 80.66L280 97.82L290 76.43L300 86.53L310 58.69L320 32.96L330 54.51L340 69.13L350 96.23L360 90.34L370 74.73L380 52.61L390 81.78L400 103.56L410 115.62L420 127.8L430 133.64L440 139.13L450 112.11L460 134.69L470 130L480 136.97L490 110.14L500 95.5L510 97.77L520 125.69L530 120.55L530 237L0 237z" fill="url(#SvgjsLinearGradient1033)"></path></g><defs><mask id="SvgjsMask1032"><rect width="525" height="237" fill="#ffffff"></rect></mask><linearGradient x1="50%" y1="0%" x2="50%" y2="100%" id="SvgjsLinearGradient1033"><stop stop-opacity="0.65" stop-color="rgba(15, 142, 157, 1)" offset="0"></stop><stop stop-opacity="0" stop-color="#55deef" offset="0.8"></stop></linearGradient></defs></svg>